<svg xmlns="http://www.w3.org/2000/svg" version="1.1" xmlns:xlink="http://www.w3.org/1999/xlink" width="512" height="512" x="0" y="0" viewBox="0 0 512 512" style="enable-background:new 0 0 512 512" xml:space="preserve" class=""><g><path d="M256 512C114.836 512 0 397.164 0 256S114.836 0 256 0s256 114.836 256 256-114.836 256-256 256zm0-480C132.48 32 32 132.48 32 256s100.48 224 224 224 224-100.48 224-224S379.52 32 256 32zm0 0" fill="#0077b6" opacity="1" data-original="#000000" class=""></path><path d="M368 272H144c-8.832 0-16-7.168-16-16s7.168-16 16-16h224c8.832 0 16 7.168 16 16s-7.168 16-16 16zm0 0" fill="#0077b6" opacity="1" data-original="#000000" class=""></path><path d="M256 384c-8.832 0-16-7.168-16-16V144c0-8.832 7.168-16 16-16s16 7.168 16 16v224c0 8.832-7.168 16-16 16zm0 0" fill="#0077b6" opacity="1" data-original="#000000" class=""></path></g></svg>