<svg xmlns="http://www.w3.org/2000/svg" version="1.1" xmlns:xlink="http://www.w3.org/1999/xlink" width="512" height="512" x="0" y="0" viewBox="0 0 64 64" style="enable-background:new 0 0 512 512" xml:space="preserve" class=""><g><g fill="#23a8fc"><path d="M53.78 16.223a.998.998 0 0 0-.623-.847l-20.772-8.38-.003-.001-.014-.005a.991.991 0 0 0-.344-.066c-.011 0-.02-.006-.03-.006s-.02.006-.03.006a.996.996 0 0 0-.344.066l-.014.005-.003.001-20.775 8.38a1 1 0 0 0-.623.847c-1.337 16.679 6.819 32.25 21.287 40.638.024.014.051.02.076.031.026.013.054.023.082.034.111.041.227.069.344.069s.232-.028.344-.069c.028-.011.056-.021.083-.034.024-.012.051-.018.075-.031C46.967 48.47 55.122 32.898 53.78 16.223zm-3.414 14.792h-6.325a.98.98 0 0 0-.799.429c-.285-5.776-4.835-10.424-10.53-10.789a.994.994 0 0 0 .282-.691V9.397l18.837 7.6a41.27 41.27 0 0 1-1.465 14.018zM31.994 41.293c-5.116 0-9.279-4.162-9.279-9.278 0-5.181 4.163-9.396 9.279-9.396 5.115 0 9.276 4.215 9.276 9.396.001 5.116-4.161 9.278-9.276 9.278zm-19.84-24.295 18.84-7.6v10.567c0 .269.109.511.282.691-5.697.365-10.248 5.013-10.533 10.789a.98.98 0 0 0-.799-.429h-6.322a41.326 41.326 0 0 1-1.468-14.018zm2.112 16.017h5.679a.982.982 0 0 0 .8-.43c.287 5.713 4.836 10.31 10.53 10.671a.994.994 0 0 0-.28.689V54.19c-7.997-5.095-13.791-12.562-16.729-21.175zM32.994 54.19V43.946a.994.994 0 0 0-.28-.689c5.692-.362 10.24-4.958 10.527-10.671.182.253.464.43.8.43h5.682c-2.937 8.611-8.732 16.078-16.729 21.174z" fill="#ffffff" opacity="1" data-original="#23a8fc"></path><path d="M35.889 31.015h-2.895v-2.899a1 1 0 1 0-2 0v2.899h-2.898a1 1 0 1 0 0 2h2.898v2.781a1 1 0 1 0 2 0v-2.781h2.895a1 1 0 1 0 0-2z" fill="#ffffff" opacity="1" data-original="#23a8fc"></path></g></g></svg>