<svg xmlns="http://www.w3.org/2000/svg" version="1.1" xmlns:xlink="http://www.w3.org/1999/xlink" width="512" height="512" x="0" y="0" viewBox="0 0 64 64" style="enable-background:new 0 0 512 512" xml:space="preserve" class=""><g><g fill="#23a8fc"><path d="M53.913 15.252c-3.051-4.083-7.934-6.52-13.064-6.52-3.075 0-6.12.892-8.843 2.586-2.75-1.694-5.815-2.586-8.906-2.586-5.158 0-10.063 2.442-13.119 6.532-2.946 3.943-3.771 8.812-2.322 13.713 3.736 12.497 20.484 23.908 23.804 26.069a.997.997 0 0 0 1.1-.006c6.014-4.008 20.359-14.572 23.677-26.066 1.448-4.902.622-9.775-2.327-13.722zm.407 13.162C51.215 39.17 37.106 49.546 32.002 53.008c-4.196-2.795-19.061-13.344-22.426-24.6-1.265-4.278-.552-8.521 2.007-11.946 2.681-3.588 6.986-5.729 11.517-5.729 2.905 0 5.794.902 8.354 2.608a.998.998 0 0 0 1.113-.002c2.531-1.705 5.395-2.605 8.282-2.605 4.502 0 8.787 2.137 11.462 5.717 2.562 3.427 3.276 7.674 2.009 11.963z" fill="#ffffff" opacity="1" data-original="#23a8fc"></path><path d="M45.947 33.363H42.05l-4.425-5.422a1.001 1.001 0 0 0-1.76.462l-1.31 7.583-2.63-13.742A.999.999 0 0 0 30 22.099l-4.803 13.609-2.191-5.274a1 1 0 0 0-.923-.616h-4.132a1 1 0 0 0 0 2h3.465l2.935 7.063a.978.978 0 0 0 .951.616 1 1 0 0 0 .916-.667l4.439-12.58 2.968 15.506c.09.472.502.812.982.812h.009a1 1 0 0 0 .976-.83l1.872-10.834 3.338 4.09c.19.232.475.368.775.368h4.371a1 1 0 1 0-.001-1.999z" fill="#ffffff" opacity="1" data-original="#23a8fc"></path></g></g></svg>