<svg xmlns="http://www.w3.org/2000/svg" version="1.1" xmlns:xlink="http://www.w3.org/1999/xlink" width="512" height="512" x="0" y="0" viewBox="0 0 64 64" style="enable-background:new 0 0 512 512" xml:space="preserve" class=""><g><g fill="#23a8fc"><path d="M54.578 25.447H39.984v-8.922c0-.357-.191-.688-.501-.867L24.716 7.152a1.001 1.001 0 0 0-.995-.001L8.838 15.656a.999.999 0 0 0-.504.868v39.457a1 1 0 0 0 1 1h45.244a1 1 0 0 0 1-1V26.447a1 1 0 0 0-1-1zm-44.244-8.343 13.881-7.933 13.769 7.931v37.879h-6.388V42.75c0-4.069-3.311-7.379-7.379-7.379-4.134 0-7.497 3.311-7.497 7.379v12.231h-6.386zm8.386 37.877V42.75c0-2.966 2.466-5.379 5.497-5.379 3.017 0 5.379 2.363 5.379 5.379v12.231zm34.858 0H39.984V27.447h13.594z" fill="#ffffff" opacity="1" data-original="#23a8fc"></path><path d="M44.42 32.646h4.725a1 1 0 0 0 0-2H44.42a1 1 0 0 0 0 2zM44.42 41.978h4.725a1 1 0 0 0 0-2H44.42a1 1 0 0 0 0 2zM44.42 46.703h4.725a1 1 0 0 0 0-2H44.42a1 1 0 0 0 0 2zM44.42 37.371h4.725a1 1 0 0 0 0-2H44.42a1 1 0 0 0 0 2zM44.42 51.428h4.725a1 1 0 0 0 0-2H44.42a1 1 0 0 0 0 2zM21.029 24.376h2.188v2.07a1 1 0 0 0 2 0v-2.07h2.073a1 1 0 0 0 0-2h-2.073v-2.189a1 1 0 0 0-2 0v2.189h-2.188a1 1 0 0 0 0 2z" fill="#ffffff" opacity="1" data-original="#23a8fc"></path></g></g></svg>