<svg xmlns="http://www.w3.org/2000/svg" version="1.1" xmlns:xlink="http://www.w3.org/1999/xlink" width="512" height="512" x="0" y="0" viewBox="0 0 700 700" style="enable-background:new 0 0 512 512" xml:space="preserve" class=""><g><circle cx="350" cy="349.999" r="350" fill="#ffffff" opacity="1" data-original="#333333" class=""></circle><path fill="#0077b6" d="M218.222 150.73s-16.623 5.073-40.642 29.092-26.438 46.237-26.438 46.237 6.827 93.617 117.801 204.589C379.915 541.62 474.354 549.27 474.354 549.27s23.305-5.154 45.905-27.756c22.602-22.602 28.598-40.147 28.598-40.147s-3.506-26.028-37.849-60.371c-34.341-34.341-59.824-37.303-59.824-37.303s-16.406 10.433-21.05 14.734c-6.44 5.968-17.515 32.118-17.515 32.118s-45.595.03-92.842-47.217c-47.248-47.247-49.163-92.811-49.163-92.811s27.628-11.128 34.087-17.587c4.464-4.465 15.385-20.335 15.385-20.335s-3.615-26.138-37.83-60.353c-34.211-34.211-64.034-41.512-64.034-41.512z" opacity="1" data-original="#ffffff" class=""></path></g></svg>