<svg xmlns="http://www.w3.org/2000/svg" version="1.1" xmlns:xlink="http://www.w3.org/1999/xlink" width="512" height="512" x="0" y="0" viewBox="0 0 512 512" style="enable-background:new 0 0 512 512" xml:space="preserve" class=""><g><path d="M456.677 0H55.323C24.771 0 0 24.771 0 55.323v401.355C0 487.229 24.771 512 55.323 512h401.355c30.552 0 55.323-24.771 55.323-55.323V55.323C512.001 24.771 487.23 0 456.678 0z" fill="#0077b6" opacity="1" data-original="#000000" class=""></path><path fill="#ffffff" d="M259.01 450.334h-.112c-57.989-.393-102.57-19.512-132.523-56.842-26.664-33.216-40.409-79.433-40.871-137.352v-.281c.462-57.933 14.207-104.137 40.871-137.352 29.939-37.33 74.534-56.45 132.509-56.842h.224c44.454.294 81.644 11.729 110.547 33.957 27.168 20.898 46.288 50.683 56.842 88.545l-33.033 9.21c-17.874-64.12-63.111-96.901-134.469-97.419-47.114.336-82.736 15.145-105.901 44.007-21.695 27.028-32.907 66.066-33.313 116.021.42 49.969 11.631 89.006 33.313 116.022 23.165 28.861 58.787 43.669 105.901 44.005 42.466-.308 70.573-10.203 93.948-33.102 26.677-26.133 26.188-58.186 17.65-77.683-5.025-11.492-14.152-21.066-26.455-28.317-3.092 21.864-10.05 39.612-20.799 52.98-14.333 17.845-34.656 27.602-60.383 28.987-19.47 1.049-38.226-3.554-52.783-12.975-17.216-11.142-27.294-28.191-28.372-48.01-1.05-19.273 6.593-36.994 21.513-49.9 14.263-12.331 34.321-19.567 58.018-20.897 17.468-.98 33.802-.21 48.905 2.31-2.002-12.023-6.06-21.555-12.107-28.442-8.315-9.476-21.178-14.319-38.212-14.431h-.476c-13.675 0-32.249 3.751-44.091 21.359l-28.456-19.134c15.845-23.557 41.585-36.518 72.532-36.518h.7c51.747.322 82.555 31.969 85.621 87.243 1.762.743 3.485 1.511 5.192 2.31 24.145 11.352 41.795 28.541 51.061 49.704 12.906 29.505 14.095 77.585-25.082 115.936-29.926 29.309-66.262 42.537-117.813 42.887h-.112l.014.014zm16.237-189.338c-3.919 0-7.895.112-11.954.35-29.743 1.68-48.275 15.299-47.225 34.698 1.106 20.324 23.529 29.771 45.07 28.61 19.833-1.065 45.645-8.777 49.969-60.09-10.946-2.336-22.982-3.569-35.86-3.569z" opacity="1" data-original="#ffffff" class=""></path></g></svg>