<svg xmlns="http://www.w3.org/2000/svg" version="1.1" xmlns:xlink="http://www.w3.org/1999/xlink" width="512" height="512" x="0" y="0" viewBox="0 0 64 64" style="enable-background:new 0 0 512 512" xml:space="preserve" class=""><g><path fill="#ffffff" d="m56.679 16.538-4.634-4.693-1.38-1.439c-.038-.04-.089-.06-.133-.092l-3.067-3.107a1 1 0 0 0-1.424 1.405l2.471 2.503-5.627 5.627-2.525-2.462a1 1 0 0 0-1.405.009L18.993 34.253a1 1 0 0 0-.293.733l.225 8.667L7.297 55.282a.999.999 0 1 0 1.414 1.414l11.628-11.629 8.667.225h.026c.265 0 .52-.105.707-.293l19.963-19.964a1 1 0 0 0 .009-1.405l-2.464-2.527 5.551-5.648 2.457 2.488a.999.999 0 0 0 1.414.008.999.999 0 0 0 .01-1.413zm-28.05 26.744-7.718-.201-.2-7.717 7.458-7.458 3.407 12.429zm4.576-4.576-3.408-12.429 2.46-2.46 1.476 5.724a1 1 0 0 0 1.938-.5L33.9 22.174l2.538-2.539 1.552 5.667a1 1 0 0 0 1.93-.529l-1.853-6.768 1.604-1.605 2.326 2.267c.044.078.083.159.149.225a.952.952 0 0 0 .256.17l1.27 1.237 1.261 1.293a.97.97 0 0 0 .175.259c.063.062.14.098.213.14l2.27 2.327zm18.177-24.664-5.531 5.628-.765-.784-.769-.75 5.601-5.6.74.75z" opacity="1" data-original="#23a8fc"></path></g></svg>